<svg id="Layer_1" data-name="Layer 1" xmlns="http://www.w3.org/2000/svg" viewBox="0 0 391.47 70.8"><defs><style>.cls-1{fill:#fff;}</style></defs><path class="cls-1" d="M175.3,39.3c-2.2-15.4-15.8-17.9-15.8-17.9-18-2.9-24,7.2-24,7.2-5.5,6.3-4.9,21.2-4.9,21.2,1.1,15,8.6,18.6,8.7,18.8,6.6,5.8,18.6,3.9,18.6,3.9C170.5,71.1,175,58.7,174.8,58,177.5,46.6,175.3,39.3,175.3,39.3Zm-7.8,16.2c.1.5-2.9,9.8-11.2,10.9,0,0-8,1.4-12.3-2.9-.1-.2-5.1-2.9-5.8-14.1,0,0-.4-11.2,3.3-15.9,0,0,4-7.6,15.9-5.4,0,0,9.1,1.8,10.5,13.4C167.9,41.4,169.3,46.8,167.5,55.5Z" transform="translate(-4.63 -3.4)"/><path class="cls-1" d="M46.8,49.8s.7-11.6-2.9-18.1c0,0-4.3-10.5-18.1-9.4A20.46,20.46,0,0,0,7.3,33.9S3.3,43,5.1,56.4c0,0,.4,10.5,12.3,15.6a42.73,42.73,0,0,0,13.8,2.2s7.6-.4,13.4-3.3V64.4s-13,5.4-22.5,2.2c0,0-8.7-2.2-9.8-10.5-.7-5.1-.4-6.5-.4-6.5ZM19.2,30.6a14.11,14.11,0,0,1,15.2.7s5.1,6.2,4.3,12.3h-26A16.16,16.16,0,0,1,19.2,30.6Z" transform="translate(-4.63 -3.4)"/><path class="cls-1" d="M54,23.7h6.2l1.4,6.5s3.8-6.7,11.4-7.4h8s9.1,1.4,10.5,8.3c0,0,4.7-7.2,12.7-8.3,0,0,7.2-1.4,12.7,1.1a14.18,14.18,0,0,1,7.6,10.5l.7,39.1h-8.3V37.3a8.59,8.59,0,0,0-6.5-8s-9.8-1.4-13.4,3.6a10.74,10.74,0,0,0-3.3,6.5l-.4,34.1h-8V39.4s0-8.3-6.9-10.1c0,0-8.7-1.8-13.8,4a21.24,21.24,0,0,0-3.3,11.2v29H54.1Z" transform="translate(-4.63 -3.4)"/><path class="cls-1" d="M183.6,73.5V23.8h6.5l1.1,6.2a25,25,0,0,1,8.7-6.2s8-4,15.6,0c0,0,7.4,2.7,9.4,13.4V73.1h-7.2V39.4s-.2-9.6-9.1-10.5c0,0-10.7-2.4-14.1,4,0,0-2.7,3.4-3.3,13V73.4h-7.6Z" transform="translate(-4.63 -3.4)"/><path class="cls-1" d="M394.1,25.7a45.11,45.11,0,0,0-19.2-3.3s-9.1,0-13.4,7.2a12,12,0,0,0,0,12,14.07,14.07,0,0,0,7.6,5.8s14.9,5.1,17,8c0,0,5.3,4.9-.5,9.6,0,0-4.9,6.3-25.5-1.3V71a71.65,71.65,0,0,0,20.5,2.4s10.7-.5,13.6-7.8c0,0,6-9.6-3.3-16.3,0,0-12-6.2-17.8-8,0,0-11.1-4.2-2.9-11.2,0,0,7.4-5.3,21,1.8Z" transform="translate(-4.63 -3.4)"/><path class="cls-1" d="M345.9,3.4l-.4,26.5c-3.1-7.4-13-8-13-8-17.6-.5-21.4,12.3-21.4,12.3-4.1,14.8.4,24.3.4,24.3A21.18,21.18,0,0,0,331,70a26.27,26.27,0,0,0,14.2-3.9l.5,7.8,6.3-.2V3.4Zm-1,49.4C343,64.2,331.6,63,331.6,63c-12.1-.4-13.5-9.2-13.5-9.2-2.9-11.7,2-19.3,2-19.3C324,28,334,29,334,29c9,1,10.8,9.9,10.8,9.9C345.1,43.2,344.9,52.8,344.9,52.8Z" transform="translate(-4.63 -3.4)"/><path class="cls-1" d="M271,56.7s22.3,1.3,29.1-5.9c0,0,4.3,15.6,5,22.8h-9.3l-2.2-8.5a.31.31,0,0,0-.6,0,43,43,0,0,0-1,8.5H270.3Z" transform="translate(-4.63 -3.4)"/><path class="cls-1" d="M268.2,55.7s0-2.7,4.3-2.6a60.32,60.32,0,0,0,14.9-.7s8-1.3,11.1-4.6c0,0,3.8-5-2.5-6.5,0,0-10.5,2-18,1.3,0,0-18-3.3-31-2,0,0-7.9,0-9.9,7.8l-5,25.4h9.3l1.9-9.1s.6-.7.6.7c0,0,.6,7.8,1.2,8.5h21.7Z" transform="translate(-4.63 -3.4)"/><path class="cls-1" d="M255.5,15.9a10.49,10.49,0,0,0-10.2,10.7,10.21,10.21,0,1,0,20.4,0A10.49,10.49,0,0,0,255.5,15.9Zm-.1,15.7a4.83,4.83,0,0,1-4.7-5,4.71,4.71,0,1,1,9.4,0A4.83,4.83,0,0,1,255.4,31.6Z" transform="translate(-4.63 -3.4)"/><path class="cls-1" d="M280.9,18.5a10.49,10.49,0,0,0-10.2,10.7c0,5.9,4.5,10.8,10.2,10.8a10.42,10.42,0,0,0,10.2-10.7C291.1,23.4,286.5,18.5,280.9,18.5Zm.1,15.8a4.72,4.72,0,0,1-4.6-4.9,4.79,4.79,0,0,1,4.6-4.9,4.72,4.72,0,0,1,4.6,4.9A4.79,4.79,0,0,1,281,34.3Z" transform="translate(-4.63 -3.4)"/></svg>