<?xml version="1.0" encoding="utf-8"?>
<!-- Generator: Adobe Illustrator 24.2.3, SVG Export Plug-In . SVG Version: 6.00 Build 0)  -->
<svg version="1.1" id="Layer_1" xmlns="http://www.w3.org/2000/svg" xmlns:xlink="http://www.w3.org/1999/xlink" x="0px" y="0px"
	 viewBox="0 0 400 80" style="enable-background:new 0 0 400 80;" xml:space="preserve">
<style type="text/css">
	.st0{fill:#50D0A1;}
	.st1{fill:#3C99AA;}
	.st2{fill:#267392;}
</style>
<path class="st0" d="M175.3,39.3c-2.2-15.4-15.8-17.9-15.8-17.9c-18-2.9-24,7.2-24,7.2c-5.5,6.3-4.9,21.2-4.9,21.2
	c1.1,15,8.6,18.6,8.7,18.8c6.6,5.8,18.6,3.9,18.6,3.9c12.6-1.4,17.1-13.8,16.9-14.5C177.5,46.6,175.3,39.3,175.3,39.3z M167.5,55.5
	c0.1,0.5-2.9,9.8-11.2,10.9c0,0-8,1.4-12.3-2.9c-0.1-0.2-5.1-2.9-5.8-14.1c0,0-0.4-11.2,3.3-15.9c0,0,4-7.6,15.9-5.4
	c0,0,9.1,1.8,10.5,13.4C167.9,41.4,169.3,46.8,167.5,55.5z"/>
<path class="st0" d="M46.8,49.8c0,0,0.7-11.6-2.9-18.1c0,0-4.3-10.5-18.1-9.4c0,0-12.3-0.7-18.5,11.6c0,0-4,9.1-2.2,22.5
	c0,0,0.4,10.5,12.3,15.6c0,0,5.8,2.2,13.8,2.2c0,0,7.6-0.4,13.4-3.3v-6.5c0,0-13,5.4-22.5,2.2c0,0-8.7-2.2-9.8-10.5
	c-0.7-5.1-0.4-6.5-0.4-6.5L46.8,49.8z M19.2,30.6c0,0,7.2-4.7,15.2,0.7c0,0,5.1,6.2,4.3,12.3H12.7C12.7,43.6,12.3,35.6,19.2,30.6z"
	/>
<path class="st0" d="M54,23.7h6.2l1.4,6.5c0,0,3.8-6.7,11.4-7.4h8c0,0,9.1,1.4,10.5,8.3c0,0,4.7-7.2,12.7-8.3c0,0,7.2-1.4,12.7,1.1
	c0,0,6.5,2.9,7.6,10.5l0.7,39.1h-8.3V37.3c0,0,0-6.2-6.5-8c0,0-9.8-1.4-13.4,3.6c0,0-2.9,2.5-3.3,6.5l-0.4,34.1h-8V39.4
	c0,0,0-8.3-6.9-10.1c0,0-8.7-1.8-13.8,4c0,0-3.3,4.7-3.3,11.2v29h-7.2L54,23.7z"/>
<path class="st0" d="M183.6,73.5V23.8h6.5l1.1,6.2c0,0,2.9-3.6,8.7-6.2c0,0,8-4,15.6,0c0,0,7.4,2.7,9.4,13.4v35.9h-7.2V39.4
	c0,0-0.2-9.6-9.1-10.5c0,0-10.7-2.4-14.1,4c0,0-2.7,3.4-3.3,13v27.5H183.6z"/>
<path class="st0" d="M394.1,25.7c0,0-8.2-3.8-19.2-3.3c0,0-9.1,0-13.4,7.2c0,0-3.6,5.4,0,12c0,0,2.4,4.2,7.6,5.8c0,0,14.9,5.1,17,8
	c0,0,5.3,4.9-0.5,9.6c0,0-4.9,6.3-25.5-1.3V71c0,0,8.9,2.7,20.5,2.4c0,0,10.7-0.5,13.6-7.8c0,0,6-9.6-3.3-16.3c0,0-12-6.2-17.8-8
	c0,0-11.1-4.2-2.9-11.2c0,0,7.4-5.3,21,1.8L394.1,25.7z"/>
<path class="st0" d="M345.9,3.4l-0.4,26.5c-3.1-7.4-13-8-13-8c-17.6-0.5-21.4,12.3-21.4,12.3c-4.1,14.8,0.4,24.3,0.4,24.3
	C318,71,331,70,331,70c8.7,0,14.2-3.9,14.2-3.9l0.5,7.8l6.3-0.2V3.4H345.9z M344.9,52.8C343,64.2,331.6,63,331.6,63
	c-12.1-0.4-13.5-9.2-13.5-9.2c-2.9-11.7,2-19.3,2-19.3C324,28,334,29,334,29c9,1,10.8,9.9,10.8,9.9
	C345.1,43.2,344.9,52.8,344.9,52.8z"/>
<path class="st1" d="M271,56.7c0,0,22.3,1.3,29.1-5.9c0,0,4.3,15.6,5,22.8h-9.3l-2.2-8.5c-0.1-0.3-0.5-0.3-0.6,0
	c-0.4,1.8-1,5.3-1,8.5h-21.7L271,56.7z"/>
<path class="st2" d="M268.2,55.7c0,0,0-2.7,4.3-2.6c0,0,5.6,0.7,14.9-0.7c0,0,8-1.3,11.1-4.6c0,0,3.8-5-2.5-6.5c0,0-10.5,2-18,1.3
	c0,0-18-3.3-31-2c0,0-7.9,0-9.9,7.8l-5,25.4h9.3l1.9-9.1c0,0,0.6-0.7,0.6,0.7c0,0,0.6,7.8,1.2,8.5h21.7L268.2,55.7z"/>
<path class="st2" d="M255.5,15.9c-5.6,0-10.2,4.8-10.2,10.7s4.6,10.7,10.2,10.7s10.2-4.8,10.2-10.7S261.1,15.9,255.5,15.9z
	 M255.4,31.6c-2.6,0-4.7-2.2-4.7-5s2.1-5,4.7-5s4.7,2.2,4.7,5S258,31.6,255.4,31.6z"/>
<path class="st1" d="M280.9,18.5c-5.6,0-10.2,4.8-10.2,10.7S275.2,40,280.9,40s10.2-4.8,10.2-10.7S286.5,18.5,280.9,18.5z M281,34.3
	c-2.6,0-4.6-2.2-4.6-4.9c0-2.7,2.1-4.9,4.6-4.9c2.6,0,4.6,2.2,4.6,4.9C285.6,32.1,283.5,34.3,281,34.3z"/>
</svg>
